<svg xmlns="http://www.w3.org/2000/svg" viewBox="0 0 658.59 657.09"><defs><style>.cls-1{fill:#4a4a4a;}</style></defs><g id="Layer_2" data-name="Layer 2"><path class="cls-1" d="M815.5,653a196.74,196.74,0,0,0-85.63,19.48C781.87,712.28,816,779.18,816,855c0,72.29-31,136.46-79,176.78A196.77,196.77,0,0,0,815.5,1048c109.08,0,197.5-88.42,197.5-197.5S924.58,653,815.5,653Z" transform="translate(-362.25 -653)"/><path class="cls-1" d="M1020.8,1101.7a196.7,196.7,0,0,0-21.15-85.23c-38.78,52.77-105,88.21-180.8,89.69-72.27,1.42-137-28.33-178.3-75.49a196.87,196.87,0,0,0-14.67,78.78c2.13,109,92.27,195.73,201.33,193.59S1022.94,1210.76,1020.8,1101.7Z" transform="translate(-362.25 -653)"/><path class="cls-1" d="M564,1310.09a196.77,196.77,0,0,0,85.67-19.33c-51.94-39.9-86-106.85-85.83-182.67.12-72.28,31.24-136.41,79.26-176.65a196.84,196.84,0,0,0-78.44-16.35c-109.08-.18-197.65,88.1-197.83,197.18S455,1309.91,564,1310.09Z" transform="translate(-362.25 -653)"/><path class="cls-1" d="M362.26,855.56a196.68,196.68,0,0,0,20,85.52c39.51-52.23,106.21-86.74,182-87.17,72.29-.41,136.64,30.24,177.23,78a196.76,196.76,0,0,0,15.77-78.56c-.62-109.07-89.55-197-198.62-196.37S361.64,746.48,362.26,855.56Z" transform="translate(-362.25 -653)"/></g></svg>